<svg width="402" height="154" viewBox="0 0 402 154" fill="none" xmlns="http://www.w3.org/2000/svg">
<path d="M31 77C31.8813 74.5765 38.9169 73.7555 40.8889 73.2222C48.8597 71.0666 56.8295 69.1048 64.9444 67.5556C73.1907 65.9813 90 65 90 65" stroke="white" stroke-width="3" stroke-linecap="round"/>
<path d="M45 96C45.6461 89.5394 56.4865 100.234 58 102" stroke="white" stroke-width="3" stroke-linecap="round"/>
<path d="M81 87C77.4505 83.8449 68.5892 99.044 67 101" stroke="white" stroke-width="3" stroke-linecap="round"/>
<path d="M34 121C34.5121 119.464 36.8039 119.027 38.1111 118.556C46.8456 115.408 55.758 112.714 64.6667 110.111C72.5086 107.82 81.6905 104 90 104" stroke="white" stroke-width="3" stroke-linecap="round"/>
<path d="M62 85C62.1086 84.0229 62.5901 82.8624 63.1111 84.5556C65.2871 91.6277 66.4974 98.5838 66.7778 106C67.3744 121.782 66.9144 136.572 70 152" stroke="white" stroke-width="3" stroke-linecap="round"/>
<path d="M111 88C110.609 84.477 109.947 88.649 110.056 90.0556C110.284 93.0271 111.068 96.2027 112 99" stroke="white" stroke-width="3" stroke-linecap="round"/>
<path d="M108 78C112.177 74.2404 128.583 71.9582 133.778 74.5556C135.366 75.3494 133.365 80.3236 133.222 81.6667C132.553 87.9754 134 94.6282 134 101" stroke="white" stroke-width="3" stroke-linecap="round"/>
<path d="M115 92C111.836 88.4403 127.571 89 130 89" stroke="white" stroke-width="3" stroke-linecap="round"/>
<path d="M115 101C111.378 101 117.793 100.026 118.333 99.9444C124.314 99.0473 130.14 97.465 136 96" stroke="white" stroke-width="3" stroke-linecap="round"/>
<path d="M122 81C119.888 64.1021 125 114.971 125 132" stroke="white" stroke-width="3" stroke-linecap="round"/>
<path d="M119 122C118.486 117.886 124.16 119 128 119" stroke="white" stroke-width="3" stroke-linecap="round"/>
<path d="M118 144C115.92 143.84 121.186 140.889 122 140.222C129.533 134.047 136.736 127.486 144 121" stroke="white" stroke-width="3" stroke-linecap="round"/>
<path d="M145 70C142.052 66.2093 164.843 62.9106 167.389 62.5C182.599 60.0467 160.62 72.0834 157 74" stroke="white" stroke-width="3" stroke-linecap="round"/>
<path d="M142 88C132.563 88 159.801 80.7658 169.222 80.2222C174.194 79.9353 174.26 84.1512 171.333 87.2222C167.857 90.8691 163.275 93.435 159 96" stroke="white" stroke-width="3" stroke-linecap="round"/>
<path d="M159 95C160.747 100.24 165.183 104.495 167 110.111C170.17 119.91 172.901 130.943 171.778 141.333C170.247 155.492 159.805 145.861 153 141" stroke="white" stroke-width="3" stroke-linecap="round"/>
<path d="M239 84C239 79.2446 229.949 92.4695 229 95" stroke="white" stroke-width="3" stroke-linecap="round"/>
<path d="M247 88C249.784 88.348 242.129 93.9733 241.5 94.5556C236.256 99.4112 231.945 105.082 228 111" stroke="white" stroke-width="3" stroke-linecap="round"/>
<path d="M240 104C243.213 101.501 243.985 111.111 244 112.556C244.078 120.04 243.216 126.704 242 134" stroke="white" stroke-width="3" stroke-linecap="round"/>
<path d="M250 68C237.95 67.2469 274.048 62.2925 286 64" stroke="white" stroke-width="3" stroke-linecap="round"/>
<path d="M267 58C261.579 58.5421 265.565 69.735 266 73" stroke="white" stroke-width="3" stroke-linecap="round"/>
<path d="M257 84C250.099 85.2178 256.11 96.9752 258 100" stroke="white" stroke-width="3" stroke-linecap="round"/>
<path d="M253 86C254.056 77.204 277.887 77.4339 284.667 78.2222C296.477 79.5955 276.686 92.2094 274 94" stroke="white" stroke-width="3" stroke-linecap="round"/>
<path d="M267 83C261.526 78.0733 266.599 91.591 267 94" stroke="white" stroke-width="3" stroke-linecap="round"/>
<path d="M276 83C270.789 83.4738 271 89.9927 271 94" stroke="white" stroke-width="3" stroke-linecap="round"/>
<path d="M260 101C264.983 99.7222 275.221 94.9614 279 100" stroke="white" stroke-width="3" stroke-linecap="round"/>
<path d="M259 119C259.125 115.874 261 114.122 261 118.056C261 124.431 260.514 130.677 261 137" stroke="white" stroke-width="3" stroke-linecap="round"/>
<path d="M274 117C269.628 116.514 276.684 128.573 278.556 130.444C285.094 136.983 296.718 135.126 299 126" stroke="white" stroke-width="3" stroke-linecap="round"/>
<path d="M292 113C289.491 114.673 291.199 115.28 293 116" stroke="white" stroke-width="3" stroke-linecap="round"/>
<path d="M302 110C299.002 108.801 302.288 111.43 303 112" stroke="white" stroke-width="3" stroke-linecap="round"/>
<path d="M335 67C331.476 63.4765 339.984 70.1288 341 71" stroke="white" stroke-width="3" stroke-linecap="round"/>
<path d="M319 84C324.223 77.0356 341.806 76.112 350 75C354.237 74.4249 363.012 71.0589 364 76" stroke="white" stroke-width="3" stroke-linecap="round"/>
<path d="M324 84C322.959 83.8959 320.325 82.6146 321.889 84.6667C326.087 90.1761 327.89 94.0354 328.389 101.222C329.288 114.166 325.578 133.281 314 141" stroke="white" stroke-width="3" stroke-linecap="round"/>
<path d="M334 105C332.538 102.807 348.302 98.3019 351 101" stroke="white" stroke-width="3" stroke-linecap="round"/>
<path d="M343 100C341.422 100.197 345 120.003 345 124" stroke="white" stroke-width="3" stroke-linecap="round"/>
<path d="M344 113C338.459 113.426 333.713 117.862 332 123" stroke="white" stroke-width="3" stroke-linecap="round"/>
<path d="M343 115C349.136 114.056 352.319 114.159 358 117" stroke="white" stroke-width="3" stroke-linecap="round"/>
<path d="M349 94C351.443 89.7806 375.275 83.8254 377 89" stroke="white" stroke-width="3" stroke-linecap="round"/>
<path d="M365 89C360.386 93.6142 365.935 105.373 366.556 110.889C366.86 113.594 368.713 134.475 365 132" stroke="white" stroke-width="3" stroke-linecap="round"/>
<path d="M362 112C354.224 116.999 349.127 127.472 354 136" stroke="white" stroke-width="3" stroke-linecap="round"/>
<path d="M372 111C375.123 122.453 390.733 122.382 400 123" stroke="white" stroke-width="3" stroke-linecap="round"/>
</svg>
